<?xml version='1.0' encoding='iso-8859-1'?>
<svg version="1.1" xmlns="http://www.w3.org/2000/svg" viewBox="0 0 368.554 368.554" xmlns:xlink="http://www.w3.org/1999/xlink" enable-background="new 0 0 368.554 368.554">
  <g>
    <path d="m361.054,57.717h-353.554c-4.142,0-7.5,3.357-7.5,7.5v43.426c0,4.143 3.358,7.5 7.5,7.5h24.383l15.195,147.926c2.739,26.662 25.016,46.768 51.819,46.768h170.76c26.803,0 49.08-20.105 51.819-46.768l15.195-147.926h24.383c4.142,0 7.5-3.357 7.5-7.5v-43.426c0-4.142-3.358-7.5-7.5-7.5zm-54.5,204.819c-1.95,18.984-17.813,33.301-36.897,33.301h-170.76c-19.084,0-34.947-14.316-36.897-33.301l-15.038-146.393h274.63l-15.038,146.393zm47-161.393h-23.652-291.25-23.652v-28.426h338.554v28.426z" fill="#fff"/>
    <path d="m86.698,269.893c4.142,0 7.5-3.357 7.5-7.5v-122.054c0-4.143-3.358-7.5-7.5-7.5s-7.5,3.357-7.5,7.5v122.054c0,4.143 3.358,7.5 7.5,7.5z" fill="#fff"/>
    <path d="m184.277,269.893c4.142,0 7.5-3.357 7.5-7.5v-122.054c0-4.143-3.358-7.5-7.5-7.5s-7.5,3.357-7.5,7.5v122.054c0,4.143 3.358,7.5 7.5,7.5z" fill="#fff"/>
    <path d="m281.856,269.893c4.142,0 7.5-3.357 7.5-7.5v-122.054c0-4.143-3.358-7.5-7.5-7.5s-7.5,3.357-7.5,7.5v122.054c0,4.143 3.358,7.5 7.5,7.5z" fill="#fff"/>
    <path d="m233.066,269.893c4.142,0 7.5-3.357 7.5-7.5v-122.054c0-4.143-3.358-7.5-7.5-7.5s-7.5,3.357-7.5,7.5v122.054c0,4.143 3.358,7.5 7.5,7.5z" fill="#fff"/>
    <path d="m135.487,269.893c4.142,0 7.5-3.357 7.5-7.5v-122.054c0-4.143-3.358-7.5-7.5-7.5s-7.5,3.357-7.5,7.5v122.054c0,4.143 3.358,7.5 7.5,7.5z" fill="#fff"/>
  </g>
</svg>
