<?xml version="1.0" encoding="iso-8859-1"?>
<!-- Generator: Adobe Illustrator 19.0.0, SVG Export Plug-In . SVG Version: 6.00 Build 0)  -->
<svg version="1.1" id="Layer_1" xmlns="http://www.w3.org/2000/svg" xmlns:xlink="http://www.w3.org/1999/xlink" x="0px" y="0px"
	 viewBox="0 0 512 512" style="enable-background:new 0 0 512 512;" xml:space="preserve">
<g>
	<g>
		<path d="M422.273,70.57l4.391-6.57L383.992,0l-0.031,0.023V0H127.992L85.336,64l5.328,7.992l-69.328,34.672V512h469.328V106.664
			L422.273,70.57z M352.336,21.328l-96.344,64.898l-96.328-64.898H352.336z M255.976,256c-5.781,0-10.469,4.602-10.641,10.344
			v-84.688c0.172,5.742,4.859,10.344,10.641,10.344c4.5,0,8.359-2.797,9.922-6.742v77.484C264.336,258.797,260.476,256,255.976,256z
			 M265.898,270.586v77.492c-1.562-3.953-5.422-6.75-9.922-6.75c-5.781,0-10.469,4.609-10.641,10.359v-84.703
			c0.172,5.734,4.859,10.344,10.641,10.344C260.476,277.328,264.335,274.531,265.898,270.586z M265.897,177.404
			c-1.563-3.944-5.422-6.74-9.921-6.74c-5.781,0-10.469,4.602-10.641,10.344v-58.125l10.656-9.867l9.906,9.156V177.404z
			 M223.993,490.657H42.664V119.852l59.938-29.977l68.094,102.016l53.297-49.281V490.657z M174.555,159.258l-63.578-95.266
			l22.875-34.32l104.641,70.484L174.555,159.258z M245.335,352.312c0.172,5.75,4.859,10.344,10.641,10.344
			c4.5,0,8.359-2.781,9.922-6.734v77.484c-1.562-3.938-5.422-6.75-9.922-6.75c-5.781,0-10.469,4.609-10.641,10.344V352.312z
			 M265.899,490.656h-20.562v-52.987c0.179,5.744,4.862,10.331,10.64,10.331c4.5,0,8.359-2.797,9.922-6.75V490.656z M378.132,29.672
			l22.891,34.32l-63.594,95.266l-63.922-59.102L378.132,29.672z M469.336,490.656H287.227V141.891l54.078,50l69.062-103.484
			l58.969,31.125V490.656z" fill="#000000"/>
	</g>
</g>
</svg>
